<svg xmlns="http://www.w3.org/2000/svg" viewBox="0 0 194.09 56.89"><defs><style>.cls-1{fill:#130c59;}.cls-2{fill:#50c3d5;}</style></defs><g id="Layer_2" data-name="Layer 2"><g id="Layer_3" data-name="Layer 3"><path class="cls-1" d="M3,28.41a.49.49,0,0,1,.43-.36h.38a.5.5,0,0,1,.41.26l5,12.2h.1l5-12.2a.44.44,0,0,1,.4-.26H15a.49.49,0,0,1,.43.36l2.94,16A.41.41,0,0,1,18,45H16.4a.5.5,0,0,1-.45-.34L14.19,34h-.07L9.82,45a.41.41,0,0,1-.41.27H9a.42.42,0,0,1-.4-.27L4.26,34h-.1L2.44,44.66A.46.46,0,0,1,2,45H.46A.43.43,0,0,1,0,44.45Z"/><path class="cls-1" d="M25,35.21a5,5,0,1,1-4.82,5A4.93,4.93,0,0,1,25,35.21Zm0,8a2.84,2.84,0,0,0,2.7-3,2.7,2.7,0,1,0-5.39,0A2.83,2.83,0,0,0,25,43.18Z"/><path class="cls-1" d="M36.19,35.21a5.7,5.7,0,0,1,2.29.53v-7a.48.48,0,0,1,.46-.45h1.38a.47.47,0,0,1,.45.45v15.8a.47.47,0,0,1-.45.46H39.6c-.21,0-.35-.17-.43-.41L39,43.9a4.25,4.25,0,0,1-3,1.34,4.73,4.73,0,0,1-4.46-5A4.82,4.82,0,0,1,36.19,35.21Zm.05,8a2.57,2.57,0,0,0,2.27-1.43V37.86a4,4,0,0,0-2.08-.57,2.77,2.77,0,0,0-2.72,2.93A2.7,2.7,0,0,0,36.24,43.18Z"/><path class="cls-1" d="M48,35.21a4.3,4.3,0,0,1,4.39,4.42c0,.21,0,.43-.05.64a.44.44,0,0,1-.43.41H45.38a2.75,2.75,0,0,0,2.74,2.55,4.1,4.1,0,0,0,2.13-.69c.28-.17.45-.26.64,0l.67.9a.37.37,0,0,1-.05.62A5.45,5.45,0,0,1,48,45.24a4.78,4.78,0,0,1-4.8-5A4.8,4.8,0,0,1,48,35.21Zm2.17,4a2.26,2.26,0,0,0-2.2-2.12,2.41,2.41,0,0,0-2.43,2.12Z"/><path class="cls-1" d="M54.64,35.9a.48.48,0,0,1,.45-.45h.69a.45.45,0,0,1,.41.33l.26.82a3.4,3.4,0,0,1,2.79-1.39c.91,0,2,.24,1.74.88l-.57,1.17a.41.41,0,0,1-.58.22,2.21,2.21,0,0,0-.81-.17,2.53,2.53,0,0,0-2.15,1.17v6.07c0,.4-.26.45-.64.45H55.09a.48.48,0,0,1-.45-.45Z"/><path class="cls-1" d="M62.66,35.9a.47.47,0,0,1,.45-.45h.69a.4.4,0,0,1,.39.29l.28.81a4.88,4.88,0,0,1,3.34-1.34c2.92,0,4,2,4,4.54v4.79a.48.48,0,0,1-.45.46H70a.47.47,0,0,1-.46-.46V39.65c0-1.53-.74-2.36-2-2.36a3.18,3.18,0,0,0-2.65,1.43v5.82c0,.31-.14.46-.55.46H63.11a.48.48,0,0,1-.45-.46Z"/><path class="cls-1" d="M116.67,28.41a.47.47,0,0,1,.43-.36h.38a.46.46,0,0,1,.4.27l5,12.19h.1l5-12.19a.46.46,0,0,1,.41-.27h.38a.49.49,0,0,1,.43.36l2.94,16a.41.41,0,0,1-.43.55H130.1a.51.51,0,0,1-.45-.33L127.89,34h-.08l-4.29,11a.41.41,0,0,1-.41.26h-.43a.42.42,0,0,1-.4-.26L118,34h-.1l-1.72,10.67a.47.47,0,0,1-.43.33h-1.55a.43.43,0,0,1-.45-.55Z"/><path class="cls-1" d="M134.3,30.18a1.37,1.37,0,0,1,1.36-1.41,1.4,1.4,0,1,1,0,2.79h0a1.36,1.36,0,0,1-1.36-1.37Zm.26,5.73a.48.48,0,0,1,.46-.46h1.36a.48.48,0,0,1,.45.46v8.64a.48.48,0,0,1-.45.45H135a.48.48,0,0,1-.46-.45Z"/><path class="cls-1" d="M139.94,28.75a.46.46,0,0,1,.45-.46h1.36a.47.47,0,0,1,.45.46v15.8a.47.47,0,0,1-.45.45h-1.36a.47.47,0,0,1-.45-.45Z"/><path class="cls-1" d="M145.31,28.75a.46.46,0,0,1,.45-.46h1.38a.48.48,0,0,1,.46.46V39.08l3.72-3.34a1,1,0,0,1,.6-.29h1.67a.37.37,0,0,1,.26.65l-4,3.6,4.68,4.68a.35.35,0,0,1-.26.62h-2a.58.58,0,0,1-.43-.19l-4.32-4.44v4.18a.48.48,0,0,1-.45.45h-1.39a.47.47,0,0,1-.45-.45Z"/><path class="cls-1" d="M156.45,35.91a.48.48,0,0,1,.45-.46h.67a.41.41,0,0,1,.41.29l.26.81a4.43,4.43,0,0,1,3.15-1.34,3.55,3.55,0,0,1,3.08,1.53,5.33,5.33,0,0,1,3.46-1.53c2.91,0,3.94,2.06,3.94,4.54v4.8a.45.45,0,0,1-.45.45h-1.34a.46.46,0,0,1-.46-.45v-4.9c0-1.5-.69-2.36-2-2.36a3.42,3.42,0,0,0-2.45,1.17,6.56,6.56,0,0,1,.07,1.15v4.94a.48.48,0,0,1-.45.45h-1.27a.45.45,0,0,1-.45-.45v-4.9c0-1.52-.69-2.36-2-2.36a2.71,2.71,0,0,0-2.36,1.43v5.83a.48.48,0,0,1-.46.45h-1.33a.48.48,0,0,1-.46-.45Z"/><path class="cls-1" d="M178,39a7.16,7.16,0,0,1,1.89.29c0-1.51-.27-2.1-1.48-2.1a9.9,9.9,0,0,0-2.68.43c-.28.07-.45-.12-.52-.38l-.19-.89a.44.44,0,0,1,.31-.55,9.91,9.91,0,0,1,3.29-.55c3.06,0,3.35,1.87,3.35,4.25v5.09a.48.48,0,0,1-.46.45h-.67c-.22,0-.31-.09-.41-.33l-.24-.65a4.1,4.1,0,0,1-2.93,1.22,3,3,0,0,1-3.08-3.2C174.16,40.3,175.54,39,178,39Zm-.29,4.58a2.8,2.8,0,0,0,2.15-1.19V40.82a3.65,3.65,0,0,0-1.67-.38c-1.15,0-1.93.6-1.93,1.58a1.43,1.43,0,0,0,1.45,1.52Z"/><path class="cls-1" d="M185,35.91a.47.47,0,0,1,.45-.46h.69a.41.41,0,0,1,.39.29l.28.81a4.88,4.88,0,0,1,3.34-1.34c2.91,0,4,2.06,4,4.54v4.8a.48.48,0,0,1-.45.45h-1.36a.46.46,0,0,1-.46-.45v-4.9c0-1.52-.74-2.36-2-2.36a3.18,3.18,0,0,0-2.65,1.43v5.83c0,.31-.14.45-.55.45H185.4a.48.48,0,0,1-.45-.45Z"/><path class="cls-2" d="M103,14.45l-3.24-7a7.1,7.1,0,0,1-.66-3V4.12a1.39,1.39,0,0,1,.49-.9h0A1.6,1.6,0,0,0,100.2,2V1.61A1.61,1.61,0,0,0,98.59,0H86.32a1.61,1.61,0,0,0-1.6,1.61V2a1.6,1.6,0,0,0,.58,1.24h0a1.35,1.35,0,0,1,.49.9v.36a7,7,0,0,1-.66,3l-3.24,7a12.34,12.34,0,0,0-1.13,5.17V53.31A3.41,3.41,0,0,0,84,56.89h17a3.41,3.41,0,0,0,3.21-3.58V19.62A12.19,12.19,0,0,0,103,14.45Zm-.34,37.9a3.1,3.1,0,0,1-2.6,3l-.16,0H85.3a3.08,3.08,0,0,1-3.07-3.07V21.24a3.08,3.08,0,0,1,2.68-3H99.82l.24,0a3.1,3.1,0,0,1,2.61,3Z"/><path class="cls-2" d="M99.36,19.32H85.54a2.16,2.16,0,0,0-2.16,2.16V52.11a2.16,2.16,0,0,0,2.16,2.16H99.36a2.16,2.16,0,0,0,2.16-2.16V21.48A2.16,2.16,0,0,0,99.36,19.32Zm-6.8,34h-.1a1.9,1.9,0,1,1,.1,0Zm5.91-8.13a.36.36,0,0,1-.24.16h-.51a.43.43,0,0,1-.44-.35l-1.56-7-2.81,7.25a.46.46,0,0,1-.46.28.73.73,0,0,1-.25,0,.37.37,0,0,1-.21-.16l0-.1-2.81-7.24-1.56,7a.43.43,0,0,1-.44.35h-.37a.45.45,0,0,1-.36-.14.4.4,0,0,1-.07-.35l2.19-9.24a.42.42,0,0,1,.4-.3h.16a.4.4,0,0,1,.39.25l2.94,7.63,3-7.62a.4.4,0,0,1,.4-.26h.17a.4.4,0,0,1,.38.26l2.19,9.28A.39.39,0,0,1,98.47,45.14Zm0-10.85a.46.46,0,0,1-.36.14h-.37a.44.44,0,0,1-.44-.35l-1.56-7-2.81,7.25a.47.47,0,0,1-.46.28.61.61,0,0,1-.25,0,.41.41,0,0,1-.21-.15l0-.11L89.13,27l-1.56,7a.45.45,0,0,1-.44.36h-.37a.5.5,0,0,1-.33-.11.41.41,0,0,1-.1-.39v0l2.18-9.21a.41.41,0,0,1,.4-.3h.16a.4.4,0,0,1,.39.25l2.94,7.64,3-7.63a.4.4,0,0,1,.4-.26h.17a.4.4,0,0,1,.38.26l2.19,9.28A.41.41,0,0,1,98.45,34.29Z"/></g></g></svg>